<svg xmlns="http://www.w3.org/2000/svg" version="1.1" xmlns:xlink="http://www.w3.org/1999/xlink" xmlns:svgjs="http://svgjs.dev/svgjs" viewBox="0 0 800 800"><g shape-rendering="crispEdges"><g transform="translate(25 0)"><use xlink:href="#SvgjsSymbol1000" x="725" y="662.5" fill="hsl(286, 100%, 51%)"></use><use xlink:href="#SvgjsSymbol1001" x="725" y="662.5" fill="#fd59ff"></use><use xlink:href="#SvgjsSymbol1002" x="725" y="662.5" fill="#8e00cb"></use></g><g transform="translate(25 0)"><use xlink:href="#SvgjsSymbol1000" x="750" y="512.5" fill="hsl(286, 100%, 51%)"></use><use xlink:href="#SvgjsSymbol1001" x="750" y="512.5" fill="#fd59ff"></use><use xlink:href="#SvgjsSymbol1002" x="750" y="512.5" fill="#8e00cb"></use></g><g transform="translate(25 0)"><use xlink:href="#SvgjsSymbol1000" x="662.5" y="625" fill="hsl(286, 100%, 51%)"></use><use xlink:href="#SvgjsSymbol1001" x="662.5" y="625" fill="#fd59ff"></use><use xlink:href="#SvgjsSymbol1002" x="662.5" y="625" fill="#8e00cb"></use></g><g transform="translate(25 0)"><use xlink:href="#SvgjsSymbol1000" x="712.5" y="362.5" fill="hsl(286, 100%, 51%)"></use><use xlink:href="#SvgjsSymbol1001" x="712.5" y="362.5" fill="#fd59ff"></use><use xlink:href="#SvgjsSymbol1002" x="712.5" y="362.5" fill="#8e00cb"></use></g><g transform="translate(25 0)"><use xlink:href="#SvgjsSymbol1000" x="587.5" y="400" fill="hsl(286, 100%, 51%)"></use><use xlink:href="#SvgjsSymbol1001" x="587.5" y="400" fill="#fd59ff"></use><use xlink:href="#SvgjsSymbol1002" x="587.5" y="400" fill="#8e00cb"></use></g><g transform="translate(25 0)"><use xlink:href="#SvgjsSymbol1000" x="687.5" y="225" fill="hsl(286, 100%, 51%)"></use><use xlink:href="#SvgjsSymbol1001" x="687.5" y="225" fill="#fd59ff"></use><use xlink:href="#SvgjsSymbol1002" x="687.5" y="225" fill="#8e00cb"></use></g><g transform="translate(25 0)"><use xlink:href="#SvgjsSymbol1000" x="750" y="100" fill="hsl(286, 100%, 51%)"></use><use xlink:href="#SvgjsSymbol1001" x="750" y="100" fill="#fd59ff"></use><use xlink:href="#SvgjsSymbol1002" x="750" y="100" fill="#8e00cb"></use></g><g transform="translate(25 0)"><use xlink:href="#SvgjsSymbol1000" x="625" y="50" fill="hsl(286, 100%, 51%)"></use><use xlink:href="#SvgjsSymbol1001" x="625" y="50" fill="#fd59ff"></use><use xlink:href="#SvgjsSymbol1002" x="625" y="50" fill="#8e00cb"></use></g><g transform="translate(25 0)"><use xlink:href="#SvgjsSymbol1000" x="650" y="150" fill="hsl(286, 100%, 51%)"></use><use xlink:href="#SvgjsSymbol1001" x="650" y="150" fill="#fd59ff"></use><use xlink:href="#SvgjsSymbol1002" x="650" y="150" fill="#8e00cb"></use></g><g transform="translate(25 0)"><use xlink:href="#SvgjsSymbol1000" x="725" y="750" fill="hsl(286, 100%, 51%)"></use><use xlink:href="#SvgjsSymbol1001" x="725" y="750" fill="#fd59ff"></use><use xlink:href="#SvgjsSymbol1002" x="725" y="750" fill="#8e00cb"></use></g><g transform="translate(25 0)"><use xlink:href="#SvgjsSymbol1000" x="587.5" y="737.5" fill="hsl(286, 100%, 51%)"></use><use xlink:href="#SvgjsSymbol1001" x="587.5" y="737.5" fill="#fd59ff"></use><use xlink:href="#SvgjsSymbol1002" x="587.5" y="737.5" fill="#8e00cb"></use></g><g transform="translate(25 0)"><use xlink:href="#SvgjsSymbol1000" x="675" y="500" fill="hsl(286, 100%, 51%)"></use><use xlink:href="#SvgjsSymbol1001" x="675" y="500" fill="#fd59ff"></use><use xlink:href="#SvgjsSymbol1002" x="675" y="500" fill="#8e00cb"></use></g><g transform="translate(25 0)"><use xlink:href="#SvgjsSymbol1000" x="562.5" y="337.5" fill="hsl(286, 100%, 51%)"></use><use xlink:href="#SvgjsSymbol1001" x="562.5" y="337.5" fill="#fd59ff"></use><use xlink:href="#SvgjsSymbol1002" x="562.5" y="337.5" fill="#8e00cb"></use></g><g transform="translate(25 0)"><use xlink:href="#SvgjsSymbol1000" x="562.5" y="137.5" fill="hsl(116, 73%, 57%)"></use><use xlink:href="#SvgjsSymbol1001" x="562.5" y="137.5" fill="#88ff74"></use><use xlink:href="#SvgjsSymbol1002" x="562.5" y="137.5" fill="#00ae00"></use></g><g transform="translate(25 0)"><use xlink:href="#SvgjsSymbol1000" x="737.5" y="50" fill="hsl(116, 73%, 57%)"></use><use xlink:href="#SvgjsSymbol1001" x="737.5" y="50" fill="#88ff74"></use><use xlink:href="#SvgjsSymbol1002" x="737.5" y="50" fill="#00ae00"></use></g><g transform="translate(25 0)"><use xlink:href="#SvgjsSymbol1000" x="525" y="250" fill="hsl(116, 73%, 57%)"></use><use xlink:href="#SvgjsSymbol1001" x="525" y="250" fill="#88ff74"></use><use xlink:href="#SvgjsSymbol1002" x="525" y="250" fill="#00ae00"></use></g><g transform="translate(25 0)"><use xlink:href="#SvgjsSymbol1000" x="587.5" y="500" fill="hsl(116, 73%, 57%)"></use><use xlink:href="#SvgjsSymbol1001" x="587.5" y="500" fill="#88ff74"></use><use xlink:href="#SvgjsSymbol1002" x="587.5" y="500" fill="#00ae00"></use></g><g transform="translate(25 0)"><use xlink:href="#SvgjsSymbol1000" x="512.5" y="712.5" fill="hsl(116, 73%, 57%)"></use><use xlink:href="#SvgjsSymbol1001" x="512.5" y="712.5" fill="#88ff74"></use><use xlink:href="#SvgjsSymbol1002" x="512.5" y="712.5" fill="#00ae00"></use></g><g transform="translate(25 0)"><use xlink:href="#SvgjsSymbol1000" x="650" y="750" fill="hsl(116, 73%, 57%)"></use><use xlink:href="#SvgjsSymbol1001" x="650" y="750" fill="#88ff74"></use><use xlink:href="#SvgjsSymbol1002" x="650" y="750" fill="#00ae00"></use></g><g transform="translate(25 0)"><use xlink:href="#SvgjsSymbol1000" x="575" y="625" fill="hsl(116, 73%, 57%)"></use><use xlink:href="#SvgjsSymbol1001" x="575" y="625" fill="#88ff74"></use><use xlink:href="#SvgjsSymbol1002" x="575" y="625" fill="#00ae00"></use></g><g transform="translate(25 0)"><use xlink:href="#SvgjsSymbol1000" x="725" y="587.5" fill="hsl(116, 73%, 57%)"></use><use xlink:href="#SvgjsSymbol1001" x="725" y="587.5" fill="#88ff74"></use><use xlink:href="#SvgjsSymbol1002" x="725" y="587.5" fill="#00ae00"></use></g><g transform="translate(25 0)"><use xlink:href="#SvgjsSymbol1000" x="675" y="675" fill="hsl(116, 73%, 57%)"></use><use xlink:href="#SvgjsSymbol1001" x="675" y="675" fill="#88ff74"></use><use xlink:href="#SvgjsSymbol1002" x="675" y="675" fill="#00ae00"></use></g><g transform="translate(25 0)"><use xlink:href="#SvgjsSymbol1000" x="712.5" y="512.5" fill="hsl(116, 73%, 57%)"></use><use xlink:href="#SvgjsSymbol1001" x="712.5" y="512.5" fill="#88ff74"></use><use xlink:href="#SvgjsSymbol1002" x="712.5" y="512.5" fill="#00ae00"></use></g><g transform="translate(25 0)"><use xlink:href="#SvgjsSymbol1000" x="687.5" y="350" fill="hsl(116, 73%, 57%)"></use><use xlink:href="#SvgjsSymbol1001" x="687.5" y="350" fill="#88ff74"></use><use xlink:href="#SvgjsSymbol1002" x="687.5" y="350" fill="#00ae00"></use></g><g transform="translate(25 0)"><use xlink:href="#SvgjsSymbol1000" x="675" y="225" fill="hsl(116, 73%, 57%)"></use><use xlink:href="#SvgjsSymbol1001" x="675" y="225" fill="#88ff74"></use><use xlink:href="#SvgjsSymbol1002" x="675" y="225" fill="#00ae00"></use></g><g transform="translate(25 0)"><use xlink:href="#SvgjsSymbol1000" x="537.5" y="12.5" fill="hsl(116, 73%, 57%)"></use><use xlink:href="#SvgjsSymbol1001" x="537.5" y="12.5" fill="#88ff74"></use><use xlink:href="#SvgjsSymbol1002" x="537.5" y="12.5" fill="#00ae00"></use></g><g transform="translate(25 0)"><use xlink:href="#SvgjsSymbol1000" x="687.5" y="37.5" fill="hsl(116, 73%, 57%)"></use><use xlink:href="#SvgjsSymbol1001" x="687.5" y="37.5" fill="#88ff74"></use><use xlink:href="#SvgjsSymbol1002" x="687.5" y="37.5" fill="#00ae00"></use></g><g transform="translate(25 0)"><use xlink:href="#SvgjsSymbol1000" x="537.5" y="550" fill="hsl(116, 73%, 57%)"></use><use xlink:href="#SvgjsSymbol1001" x="537.5" y="550" fill="#88ff74"></use><use xlink:href="#SvgjsSymbol1002" x="537.5" y="550" fill="#00ae00"></use></g><g transform="translate(25 0)"><use xlink:href="#SvgjsSymbol1000" x="525" y="375" fill="hsl(116, 73%, 57%)"></use><use xlink:href="#SvgjsSymbol1001" x="525" y="375" fill="#88ff74"></use><use xlink:href="#SvgjsSymbol1002" x="525" y="375" fill="#00ae00"></use></g><g transform="translate(25 0)"><use xlink:href="#SvgjsSymbol1000" x="550" y="637.5" fill="hsl(290, 87%, 47%)"></use><use xlink:href="#SvgjsSymbol1001" x="550" y="637.5" fill="#f359ff"></use><use xlink:href="#SvgjsSymbol1002" x="550" y="637.5" fill="#8800ad"></use></g><g transform="translate(25 0)"><use xlink:href="#SvgjsSymbol1000" x="612.5" y="262.5" fill="hsl(290, 87%, 47%)"></use><use xlink:href="#SvgjsSymbol1001" x="612.5" y="262.5" fill="#f359ff"></use><use xlink:href="#SvgjsSymbol1002" x="612.5" y="262.5" fill="#8800ad"></use></g><g transform="translate(25 0)"><use xlink:href="#SvgjsSymbol1000" x="725" y="200" fill="hsl(290, 87%, 47%)"></use><use xlink:href="#SvgjsSymbol1001" x="725" y="200" fill="#f359ff"></use><use xlink:href="#SvgjsSymbol1002" x="725" y="200" fill="#8800ad"></use></g><g transform="translate(25 0)"><use xlink:href="#SvgjsSymbol1000" x="700" y="12.5" fill="hsl(290, 87%, 47%)"></use><use xlink:href="#SvgjsSymbol1001" x="700" y="12.5" fill="#f359ff"></use><use xlink:href="#SvgjsSymbol1002" x="700" y="12.5" fill="#8800ad"></use></g></g><symbol id="SvgjsSymbol1000"><polygon points="0,12.5 25,0 50,12.5 25,25"></polygon></symbol><symbol id="SvgjsSymbol1001"><polygon points="0,12.5 25,25 25,50 0,37.5"></polygon></symbol><symbol id="SvgjsSymbol1002"><polygon points="25,25 50,12.5 50,37.5 25,50"></polygon></symbol><g></g><symbol id="SvgjsSymbol1003"><polygon points="0,6.25 12.5,0 25,6.25 12.5,12.5"></polygon></symbol><symbol id="SvgjsSymbol1004"><polygon points="0,6.25 12.5,12.5 12.5,25 0,18.75"></polygon></symbol><symbol id="SvgjsSymbol1005"><polygon points="12.5,12.5 25,6.25 25,18.75 12.5,25"></polygon></symbol></svg>