<svg xmlns="http://www.w3.org/2000/svg" version="1.1" xmlns:xlink="http://www.w3.org/1999/xlink" xmlns:svgjs="http://svgjs.dev/svgjs" viewBox="0 0 800 800"><symbol id="SvgjsSymbol1006"><polygon points="0,6.25 12.5,0 25,6.25 12.5,12.5"></polygon></symbol><symbol id="SvgjsSymbol1007"><polygon points="0,6.25 12.5,12.5 12.5,25 0,18.75"></polygon></symbol><symbol id="SvgjsSymbol1008"><polygon points="12.5,12.5 25,6.25 25,18.75 12.5,25"></polygon></symbol><g shape-rendering="crispEdges"><g><use xlink:href="#SvgjsSymbol1006" x="750" y="93.75" fill="hsl(290, 87%, 47%)"></use><use xlink:href="#SvgjsSymbol1007" x="750" y="93.75" fill="#f359ff"></use><use xlink:href="#SvgjsSymbol1008" x="750" y="93.75" fill="#8800ad"></use></g><g><use xlink:href="#SvgjsSymbol1006" x="668.75" y="87.5" fill="hsl(290, 87%, 47%)"></use><use xlink:href="#SvgjsSymbol1007" x="668.75" y="87.5" fill="#f359ff"></use><use xlink:href="#SvgjsSymbol1008" x="668.75" y="87.5" fill="#8800ad"></use></g><g><use xlink:href="#SvgjsSymbol1006" x="737.5" y="243.75" fill="hsl(290, 87%, 47%)"></use><use xlink:href="#SvgjsSymbol1007" x="737.5" y="243.75" fill="#f359ff"></use><use xlink:href="#SvgjsSymbol1008" x="737.5" y="243.75" fill="#8800ad"></use></g><g><use xlink:href="#SvgjsSymbol1006" x="681.25" y="381.25" fill="hsl(290, 87%, 47%)"></use><use xlink:href="#SvgjsSymbol1007" x="681.25" y="381.25" fill="#f359ff"></use><use xlink:href="#SvgjsSymbol1008" x="681.25" y="381.25" fill="#8800ad"></use></g><g><use xlink:href="#SvgjsSymbol1006" x="612.5" y="337.5" fill="hsl(290, 87%, 47%)"></use><use xlink:href="#SvgjsSymbol1007" x="612.5" y="337.5" fill="#f359ff"></use><use xlink:href="#SvgjsSymbol1008" x="612.5" y="337.5" fill="#8800ad"></use></g><g><use xlink:href="#SvgjsSymbol1006" x="681.25" y="575" fill="hsl(290, 87%, 47%)"></use><use xlink:href="#SvgjsSymbol1007" x="681.25" y="575" fill="#f359ff"></use><use xlink:href="#SvgjsSymbol1008" x="681.25" y="575" fill="#8800ad"></use></g><g><use xlink:href="#SvgjsSymbol1006" x="768.75" y="600" fill="hsl(290, 87%, 47%)"></use><use xlink:href="#SvgjsSymbol1007" x="768.75" y="600" fill="#f359ff"></use><use xlink:href="#SvgjsSymbol1008" x="768.75" y="600" fill="#8800ad"></use></g><g><use xlink:href="#SvgjsSymbol1006" x="706.25" y="718.75" fill="hsl(290, 87%, 47%)"></use><use xlink:href="#SvgjsSymbol1007" x="706.25" y="718.75" fill="#f359ff"></use><use xlink:href="#SvgjsSymbol1008" x="706.25" y="718.75" fill="#8800ad"></use></g><g><use xlink:href="#SvgjsSymbol1006" x="568.75" y="712.5" fill="hsl(290, 87%, 47%)"></use><use xlink:href="#SvgjsSymbol1007" x="568.75" y="712.5" fill="#f359ff"></use><use xlink:href="#SvgjsSymbol1008" x="568.75" y="712.5" fill="#8800ad"></use></g><g><use xlink:href="#SvgjsSymbol1006" x="643.75" y="506.25" fill="hsl(290, 87%, 47%)"></use><use xlink:href="#SvgjsSymbol1007" x="643.75" y="506.25" fill="#f359ff"></use><use xlink:href="#SvgjsSymbol1008" x="643.75" y="506.25" fill="#8800ad"></use></g><g><use xlink:href="#SvgjsSymbol1006" x="743.75" y="500" fill="hsl(290, 87%, 47%)"></use><use xlink:href="#SvgjsSymbol1007" x="743.75" y="500" fill="#f359ff"></use><use xlink:href="#SvgjsSymbol1008" x="743.75" y="500" fill="#8800ad"></use></g><g><use xlink:href="#SvgjsSymbol1006" x="618.75" y="437.5" fill="hsl(290, 87%, 47%)"></use><use xlink:href="#SvgjsSymbol1007" x="618.75" y="437.5" fill="#f359ff"></use><use xlink:href="#SvgjsSymbol1008" x="618.75" y="437.5" fill="#8800ad"></use></g><g><use xlink:href="#SvgjsSymbol1006" x="700" y="293.75" fill="hsl(290, 87%, 47%)"></use><use xlink:href="#SvgjsSymbol1007" x="700" y="293.75" fill="#f359ff"></use><use xlink:href="#SvgjsSymbol1008" x="700" y="293.75" fill="#8800ad"></use></g><g><use xlink:href="#SvgjsSymbol1006" x="581.25" y="193.75" fill="hsl(290, 87%, 47%)"></use><use xlink:href="#SvgjsSymbol1007" x="581.25" y="193.75" fill="#f359ff"></use><use xlink:href="#SvgjsSymbol1008" x="581.25" y="193.75" fill="#8800ad"></use></g><g><use xlink:href="#SvgjsSymbol1006" x="687.5" y="156.25" fill="hsl(290, 87%, 47%)"></use><use xlink:href="#SvgjsSymbol1007" x="687.5" y="156.25" fill="#f359ff"></use><use xlink:href="#SvgjsSymbol1008" x="687.5" y="156.25" fill="#8800ad"></use></g><g><use xlink:href="#SvgjsSymbol1006" x="593.75" y="593.75" fill="hsl(290, 87%, 47%)"></use><use xlink:href="#SvgjsSymbol1007" x="593.75" y="593.75" fill="#f359ff"></use><use xlink:href="#SvgjsSymbol1008" x="593.75" y="593.75" fill="#8800ad"></use></g><g><use xlink:href="#SvgjsSymbol1006" x="637.5" y="756.25" fill="hsl(290, 87%, 47%)"></use><use xlink:href="#SvgjsSymbol1007" x="637.5" y="756.25" fill="#f359ff"></use><use xlink:href="#SvgjsSymbol1008" x="637.5" y="756.25" fill="#8800ad"></use></g><g><use xlink:href="#SvgjsSymbol1006" x="775" y="706.25" fill="hsl(290, 87%, 47%)"></use><use xlink:href="#SvgjsSymbol1007" x="775" y="706.25" fill="#f359ff"></use><use xlink:href="#SvgjsSymbol1008" x="775" y="706.25" fill="#8800ad"></use></g><g><use xlink:href="#SvgjsSymbol1006" x="556.25" y="68.75" fill="hsl(290, 87%, 47%)"></use><use xlink:href="#SvgjsSymbol1007" x="556.25" y="68.75" fill="#f359ff"></use><use xlink:href="#SvgjsSymbol1008" x="556.25" y="68.75" fill="#8800ad"></use></g><g><use xlink:href="#SvgjsSymbol1006" x="675" y="25" fill="hsl(290, 87%, 47%)"></use><use xlink:href="#SvgjsSymbol1007" x="675" y="25" fill="#f359ff"></use><use xlink:href="#SvgjsSymbol1008" x="675" y="25" fill="#8800ad"></use></g><g><use xlink:href="#SvgjsSymbol1006" x="750" y="400" fill="hsl(290, 87%, 47%)"></use><use xlink:href="#SvgjsSymbol1007" x="750" y="400" fill="#f359ff"></use><use xlink:href="#SvgjsSymbol1008" x="750" y="400" fill="#8800ad"></use></g><g><use xlink:href="#SvgjsSymbol1006" x="575" y="481.25" fill="hsl(290, 87%, 47%)"></use><use xlink:href="#SvgjsSymbol1007" x="575" y="481.25" fill="#f359ff"></use><use xlink:href="#SvgjsSymbol1008" x="575" y="481.25" fill="#8800ad"></use></g><g><use xlink:href="#SvgjsSymbol1006" x="556.25" y="356.25" fill="hsl(116, 73%, 57%)"></use><use xlink:href="#SvgjsSymbol1007" x="556.25" y="356.25" fill="#88ff74"></use><use xlink:href="#SvgjsSymbol1008" x="556.25" y="356.25" fill="#00ae00"></use></g><g><use xlink:href="#SvgjsSymbol1006" x="706.25" y="462.5" fill="hsl(116, 73%, 57%)"></use><use xlink:href="#SvgjsSymbol1007" x="706.25" y="462.5" fill="#88ff74"></use><use xlink:href="#SvgjsSymbol1008" x="706.25" y="462.5" fill="#00ae00"></use></g><g><use xlink:href="#SvgjsSymbol1006" x="625" y="612.5" fill="hsl(116, 73%, 57%)"></use><use xlink:href="#SvgjsSymbol1007" x="625" y="612.5" fill="#88ff74"></use><use xlink:href="#SvgjsSymbol1008" x="625" y="612.5" fill="#00ae00"></use></g><g><use xlink:href="#SvgjsSymbol1006" x="675" y="718.75" fill="hsl(116, 73%, 57%)"></use><use xlink:href="#SvgjsSymbol1007" x="675" y="718.75" fill="#88ff74"></use><use xlink:href="#SvgjsSymbol1008" x="675" y="718.75" fill="#00ae00"></use></g><g><use xlink:href="#SvgjsSymbol1006" x="568.75" y="662.5" fill="hsl(116, 73%, 57%)"></use><use xlink:href="#SvgjsSymbol1007" x="568.75" y="662.5" fill="#88ff74"></use><use xlink:href="#SvgjsSymbol1008" x="568.75" y="662.5" fill="#00ae00"></use></g><g><use xlink:href="#SvgjsSymbol1006" x="718.75" y="662.5" fill="hsl(116, 73%, 57%)"></use><use xlink:href="#SvgjsSymbol1007" x="718.75" y="662.5" fill="#88ff74"></use><use xlink:href="#SvgjsSymbol1008" x="718.75" y="662.5" fill="#00ae00"></use></g><g><use xlink:href="#SvgjsSymbol1006" x="775" y="481.25" fill="hsl(116, 73%, 57%)"></use><use xlink:href="#SvgjsSymbol1007" x="775" y="481.25" fill="#88ff74"></use><use xlink:href="#SvgjsSymbol1008" x="775" y="481.25" fill="#00ae00"></use></g><g><use xlink:href="#SvgjsSymbol1006" x="687.5" y="275" fill="hsl(116, 73%, 57%)"></use><use xlink:href="#SvgjsSymbol1007" x="687.5" y="275" fill="#88ff74"></use><use xlink:href="#SvgjsSymbol1008" x="687.5" y="275" fill="#00ae00"></use></g><g><use xlink:href="#SvgjsSymbol1006" x="712.5" y="125" fill="hsl(116, 73%, 57%)"></use><use xlink:href="#SvgjsSymbol1007" x="712.5" y="125" fill="#88ff74"></use><use xlink:href="#SvgjsSymbol1008" x="712.5" y="125" fill="#00ae00"></use></g><g><use xlink:href="#SvgjsSymbol1006" x="531.25" y="93.75" fill="hsl(116, 73%, 57%)"></use><use xlink:href="#SvgjsSymbol1007" x="531.25" y="93.75" fill="#88ff74"></use><use xlink:href="#SvgjsSymbol1008" x="531.25" y="93.75" fill="#00ae00"></use></g><g><use xlink:href="#SvgjsSymbol1006" x="612.5" y="212.5" fill="hsl(116, 73%, 57%)"></use><use xlink:href="#SvgjsSymbol1007" x="612.5" y="212.5" fill="#88ff74"></use><use xlink:href="#SvgjsSymbol1008" x="612.5" y="212.5" fill="#00ae00"></use></g><g><use xlink:href="#SvgjsSymbol1006" x="700" y="212.5" fill="hsl(116, 73%, 57%)"></use><use xlink:href="#SvgjsSymbol1007" x="700" y="212.5" fill="#88ff74"></use><use xlink:href="#SvgjsSymbol1008" x="700" y="212.5" fill="#00ae00"></use></g><g><use xlink:href="#SvgjsSymbol1006" x="593.75" y="137.5" fill="hsl(116, 73%, 57%)"></use><use xlink:href="#SvgjsSymbol1007" x="593.75" y="137.5" fill="#88ff74"></use><use xlink:href="#SvgjsSymbol1008" x="593.75" y="137.5" fill="#00ae00"></use></g><g><use xlink:href="#SvgjsSymbol1006" x="706.25" y="56.25" fill="hsl(116, 73%, 57%)"></use><use xlink:href="#SvgjsSymbol1007" x="706.25" y="56.25" fill="#88ff74"></use><use xlink:href="#SvgjsSymbol1008" x="706.25" y="56.25" fill="#00ae00"></use></g><g><use xlink:href="#SvgjsSymbol1006" x="600" y="293.75" fill="hsl(116, 73%, 57%)"></use><use xlink:href="#SvgjsSymbol1007" x="600" y="293.75" fill="#88ff74"></use><use xlink:href="#SvgjsSymbol1008" x="600" y="293.75" fill="#00ae00"></use></g><g><use xlink:href="#SvgjsSymbol1006" x="637.5" y="437.5" fill="hsl(116, 73%, 57%)"></use><use xlink:href="#SvgjsSymbol1007" x="637.5" y="437.5" fill="#88ff74"></use><use xlink:href="#SvgjsSymbol1008" x="637.5" y="437.5" fill="#00ae00"></use></g><g><use xlink:href="#SvgjsSymbol1006" x="650" y="525" fill="hsl(116, 73%, 57%)"></use><use xlink:href="#SvgjsSymbol1007" x="650" y="525" fill="#88ff74"></use><use xlink:href="#SvgjsSymbol1008" x="650" y="525" fill="#00ae00"></use></g><g><use xlink:href="#SvgjsSymbol1006" x="637.5" y="762.5" fill="hsl(116, 73%, 57%)"></use><use xlink:href="#SvgjsSymbol1007" x="637.5" y="762.5" fill="#88ff74"></use><use xlink:href="#SvgjsSymbol1008" x="637.5" y="762.5" fill="#00ae00"></use></g><g><use xlink:href="#SvgjsSymbol1006" x="587.5" y="487.5" fill="hsl(116, 73%, 57%)"></use><use xlink:href="#SvgjsSymbol1007" x="587.5" y="487.5" fill="#88ff74"></use><use xlink:href="#SvgjsSymbol1008" x="587.5" y="487.5" fill="#00ae00"></use></g><g><use xlink:href="#SvgjsSymbol1006" x="581.25" y="31.25" fill="hsl(116, 73%, 57%)"></use><use xlink:href="#SvgjsSymbol1007" x="581.25" y="31.25" fill="#88ff74"></use><use xlink:href="#SvgjsSymbol1008" x="581.25" y="31.25" fill="#00ae00"></use></g><g><use xlink:href="#SvgjsSymbol1006" x="762.5" y="343.75" fill="hsl(116, 73%, 57%)"></use><use xlink:href="#SvgjsSymbol1007" x="762.5" y="343.75" fill="#88ff74"></use><use xlink:href="#SvgjsSymbol1008" x="762.5" y="343.75" fill="#00ae00"></use></g><g><use xlink:href="#SvgjsSymbol1006" x="681.25" y="368.75" fill="hsl(116, 73%, 57%)"></use><use xlink:href="#SvgjsSymbol1007" x="681.25" y="368.75" fill="#88ff74"></use><use xlink:href="#SvgjsSymbol1008" x="681.25" y="368.75" fill="#00ae00"></use></g><g><use xlink:href="#SvgjsSymbol1006" x="618.75" y="356.25" fill="hsl(116, 73%, 57%)"></use><use xlink:href="#SvgjsSymbol1007" x="618.75" y="356.25" fill="#88ff74"></use><use xlink:href="#SvgjsSymbol1008" x="618.75" y="356.25" fill="#00ae00"></use></g><g><use xlink:href="#SvgjsSymbol1006" x="762.5" y="768.75" fill="hsl(116, 73%, 57%)"></use><use xlink:href="#SvgjsSymbol1007" x="762.5" y="768.75" fill="#88ff74"></use><use xlink:href="#SvgjsSymbol1008" x="762.5" y="768.75" fill="#00ae00"></use></g></g><g></g></svg>