<svg xmlns="http://www.w3.org/2000/svg" version="1.1" xmlns:xlink="http://www.w3.org/1999/xlink" xmlns:svgjs="http://svgjs.dev/svgjs" viewBox="0 0 800 800"><symbol id="SvgjsSymbol1006"><polygon points="0,6.25 12.5,0 25,6.25 12.5,12.5"></polygon></symbol><symbol id="SvgjsSymbol1007"><polygon points="0,6.25 12.5,12.5 12.5,25 0,18.75"></polygon></symbol><symbol id="SvgjsSymbol1008"><polygon points="12.5,12.5 25,6.25 25,18.75 12.5,25"></polygon></symbol><g shape-rendering="crispEdges"><g><use xlink:href="#SvgjsSymbol1006" x="762.5" y="300" fill="hsl(116, 96%, 33%)"></use><use xlink:href="#SvgjsSymbol1007" x="762.5" y="300" fill="#5ad844"></use><use xlink:href="#SvgjsSymbol1008" x="762.5" y="300" fill="#007500"></use></g><g><use xlink:href="#SvgjsSymbol1006" x="737.5" y="662.5" fill="hsl(116, 96%, 33%)"></use><use xlink:href="#SvgjsSymbol1007" x="737.5" y="662.5" fill="#5ad844"></use><use xlink:href="#SvgjsSymbol1008" x="737.5" y="662.5" fill="#007500"></use></g><g><use xlink:href="#SvgjsSymbol1006" x="662.5" y="556.25" fill="hsl(116, 96%, 33%)"></use><use xlink:href="#SvgjsSymbol1007" x="662.5" y="556.25" fill="#5ad844"></use><use xlink:href="#SvgjsSymbol1008" x="662.5" y="556.25" fill="#007500"></use></g><g><use xlink:href="#SvgjsSymbol1006" x="743.75" y="400" fill="hsl(116, 96%, 33%)"></use><use xlink:href="#SvgjsSymbol1007" x="743.75" y="400" fill="#5ad844"></use><use xlink:href="#SvgjsSymbol1008" x="743.75" y="400" fill="#007500"></use></g><g><use xlink:href="#SvgjsSymbol1006" x="706.25" y="168.75" fill="hsl(116, 96%, 33%)"></use><use xlink:href="#SvgjsSymbol1007" x="706.25" y="168.75" fill="#5ad844"></use><use xlink:href="#SvgjsSymbol1008" x="706.25" y="168.75" fill="#007500"></use></g><g><use xlink:href="#SvgjsSymbol1006" x="612.5" y="56.25" fill="hsl(116, 96%, 33%)"></use><use xlink:href="#SvgjsSymbol1007" x="612.5" y="56.25" fill="#5ad844"></use><use xlink:href="#SvgjsSymbol1008" x="612.5" y="56.25" fill="#007500"></use></g><g><use xlink:href="#SvgjsSymbol1006" x="87.5" y="618.75" fill="hsl(116, 96%, 33%)"></use><use xlink:href="#SvgjsSymbol1007" x="87.5" y="618.75" fill="#5ad844"></use><use xlink:href="#SvgjsSymbol1008" x="87.5" y="618.75" fill="#007500"></use></g><g><use xlink:href="#SvgjsSymbol1006" x="56.25" y="375" fill="hsl(116, 96%, 33%)"></use><use xlink:href="#SvgjsSymbol1007" x="56.25" y="375" fill="#5ad844"></use><use xlink:href="#SvgjsSymbol1008" x="56.25" y="375" fill="#007500"></use></g><g><use xlink:href="#SvgjsSymbol1006" x="168.75" y="287.5" fill="hsl(116, 96%, 33%)"></use><use xlink:href="#SvgjsSymbol1007" x="168.75" y="287.5" fill="#5ad844"></use><use xlink:href="#SvgjsSymbol1008" x="168.75" y="287.5" fill="#007500"></use></g><g><use xlink:href="#SvgjsSymbol1006" x="137.5" y="481.25" fill="hsl(116, 96%, 33%)"></use><use xlink:href="#SvgjsSymbol1007" x="137.5" y="481.25" fill="#5ad844"></use><use xlink:href="#SvgjsSymbol1008" x="137.5" y="481.25" fill="#007500"></use></g><g><use xlink:href="#SvgjsSymbol1006" x="150" y="743.75" fill="hsl(116, 96%, 33%)"></use><use xlink:href="#SvgjsSymbol1007" x="150" y="743.75" fill="#5ad844"></use><use xlink:href="#SvgjsSymbol1008" x="150" y="743.75" fill="#007500"></use></g><g><use xlink:href="#SvgjsSymbol1006" x="100" y="350" fill="hsl(289, 77%, 51%)"></use><use xlink:href="#SvgjsSymbol1007" x="100" y="350" fill="#f561ff"></use><use xlink:href="#SvgjsSymbol1008" x="100" y="350" fill="#8a00af"></use></g><g><use xlink:href="#SvgjsSymbol1006" x="62.5" y="531.25" fill="hsl(289, 77%, 51%)"></use><use xlink:href="#SvgjsSymbol1007" x="62.5" y="531.25" fill="#f561ff"></use><use xlink:href="#SvgjsSymbol1008" x="62.5" y="531.25" fill="#8a00af"></use></g><g><use xlink:href="#SvgjsSymbol1006" x="43.75" y="712.5" fill="hsl(289, 77%, 51%)"></use><use xlink:href="#SvgjsSymbol1007" x="43.75" y="712.5" fill="#f561ff"></use><use xlink:href="#SvgjsSymbol1008" x="43.75" y="712.5" fill="#8a00af"></use></g><g><use xlink:href="#SvgjsSymbol1006" x="81.25" y="243.75" fill="hsl(289, 77%, 51%)"></use><use xlink:href="#SvgjsSymbol1007" x="81.25" y="243.75" fill="#f561ff"></use><use xlink:href="#SvgjsSymbol1008" x="81.25" y="243.75" fill="#8a00af"></use></g><g><use xlink:href="#SvgjsSymbol1006" x="6.25" y="81.25" fill="hsl(289, 77%, 51%)"></use><use xlink:href="#SvgjsSymbol1007" x="6.25" y="81.25" fill="#f561ff"></use><use xlink:href="#SvgjsSymbol1008" x="6.25" y="81.25" fill="#8a00af"></use></g><g><use xlink:href="#SvgjsSymbol1006" x="75" y="50" fill="hsl(289, 77%, 51%)"></use><use xlink:href="#SvgjsSymbol1007" x="75" y="50" fill="#f561ff"></use><use xlink:href="#SvgjsSymbol1008" x="75" y="50" fill="#8a00af"></use></g><g><use xlink:href="#SvgjsSymbol1006" x="631.25" y="718.75" fill="hsl(289, 77%, 51%)"></use><use xlink:href="#SvgjsSymbol1007" x="631.25" y="718.75" fill="#f561ff"></use><use xlink:href="#SvgjsSymbol1008" x="631.25" y="718.75" fill="#8a00af"></use></g><g><use xlink:href="#SvgjsSymbol1006" x="631.25" y="512.5" fill="hsl(289, 77%, 51%)"></use><use xlink:href="#SvgjsSymbol1007" x="631.25" y="512.5" fill="#f561ff"></use><use xlink:href="#SvgjsSymbol1008" x="631.25" y="512.5" fill="#8a00af"></use></g><g><use xlink:href="#SvgjsSymbol1006" x="725" y="512.5" fill="hsl(289, 77%, 51%)"></use><use xlink:href="#SvgjsSymbol1007" x="725" y="512.5" fill="#f561ff"></use><use xlink:href="#SvgjsSymbol1008" x="725" y="512.5" fill="#8a00af"></use></g><g><use xlink:href="#SvgjsSymbol1006" x="737.5" y="750" fill="hsl(289, 77%, 51%)"></use><use xlink:href="#SvgjsSymbol1007" x="737.5" y="750" fill="#f561ff"></use><use xlink:href="#SvgjsSymbol1008" x="737.5" y="750" fill="#8a00af"></use></g><g><use xlink:href="#SvgjsSymbol1006" x="606.25" y="656.25" fill="hsl(289, 77%, 51%)"></use><use xlink:href="#SvgjsSymbol1007" x="606.25" y="656.25" fill="#f561ff"></use><use xlink:href="#SvgjsSymbol1008" x="606.25" y="656.25" fill="#8a00af"></use></g><g><use xlink:href="#SvgjsSymbol1006" x="600" y="368.75" fill="hsl(289, 77%, 51%)"></use><use xlink:href="#SvgjsSymbol1007" x="600" y="368.75" fill="#f561ff"></use><use xlink:href="#SvgjsSymbol1008" x="600" y="368.75" fill="#8a00af"></use></g><g><use xlink:href="#SvgjsSymbol1006" x="587.5" y="125" fill="hsl(289, 77%, 51%)"></use><use xlink:href="#SvgjsSymbol1007" x="587.5" y="125" fill="#f561ff"></use><use xlink:href="#SvgjsSymbol1008" x="587.5" y="125" fill="#8a00af"></use></g><g><use xlink:href="#SvgjsSymbol1006" x="656.25" y="87.5" fill="hsl(289, 77%, 51%)"></use><use xlink:href="#SvgjsSymbol1007" x="656.25" y="87.5" fill="#f561ff"></use><use xlink:href="#SvgjsSymbol1008" x="656.25" y="87.5" fill="#8a00af"></use></g><g><use xlink:href="#SvgjsSymbol1006" x="743.75" y="300" fill="hsl(289, 77%, 51%)"></use><use xlink:href="#SvgjsSymbol1007" x="743.75" y="300" fill="#f561ff"></use><use xlink:href="#SvgjsSymbol1008" x="743.75" y="300" fill="#8a00af"></use></g><g><use xlink:href="#SvgjsSymbol1006" x="668.75" y="418.75" fill="hsl(289, 77%, 51%)"></use><use xlink:href="#SvgjsSymbol1007" x="668.75" y="418.75" fill="#f561ff"></use><use xlink:href="#SvgjsSymbol1008" x="668.75" y="418.75" fill="#8a00af"></use></g><g><use xlink:href="#SvgjsSymbol1006" x="675" y="218.75" fill="hsl(289, 77%, 51%)"></use><use xlink:href="#SvgjsSymbol1007" x="675" y="218.75" fill="#f561ff"></use><use xlink:href="#SvgjsSymbol1008" x="675" y="218.75" fill="#8a00af"></use></g><g><use xlink:href="#SvgjsSymbol1006" x="750" y="93.75" fill="hsl(289, 77%, 51%)"></use><use xlink:href="#SvgjsSymbol1007" x="750" y="93.75" fill="#f561ff"></use><use xlink:href="#SvgjsSymbol1008" x="750" y="93.75" fill="#8a00af"></use></g><g><use xlink:href="#SvgjsSymbol1006" x="781.25" y="25" fill="hsl(289, 77%, 51%)"></use><use xlink:href="#SvgjsSymbol1007" x="781.25" y="25" fill="#f561ff"></use><use xlink:href="#SvgjsSymbol1008" x="781.25" y="25" fill="#8a00af"></use></g><g><use xlink:href="#SvgjsSymbol1006" x="587.5" y="6.25" fill="hsl(116, 66%, 57%)"></use><use xlink:href="#SvgjsSymbol1007" x="587.5" y="6.25" fill="#8cff7a"></use><use xlink:href="#SvgjsSymbol1008" x="587.5" y="6.25" fill="#00a70f"></use></g><g><use xlink:href="#SvgjsSymbol1006" x="200" y="81.25" fill="hsl(116, 66%, 57%)"></use><use xlink:href="#SvgjsSymbol1007" x="200" y="81.25" fill="#8cff7a"></use><use xlink:href="#SvgjsSymbol1008" x="200" y="81.25" fill="#00a70f"></use></g><g><use xlink:href="#SvgjsSymbol1006" x="181.25" y="18.75" fill="hsl(116, 66%, 57%)"></use><use xlink:href="#SvgjsSymbol1007" x="181.25" y="18.75" fill="#8cff7a"></use><use xlink:href="#SvgjsSymbol1008" x="181.25" y="18.75" fill="#00a70f"></use></g><g><use xlink:href="#SvgjsSymbol1006" x="68.75" y="12.5" fill="hsl(116, 66%, 57%)"></use><use xlink:href="#SvgjsSymbol1007" x="68.75" y="12.5" fill="#8cff7a"></use><use xlink:href="#SvgjsSymbol1008" x="68.75" y="12.5" fill="#00a70f"></use></g><g><use xlink:href="#SvgjsSymbol1006" x="125" y="137.5" fill="hsl(116, 66%, 57%)"></use><use xlink:href="#SvgjsSymbol1007" x="125" y="137.5" fill="#8cff7a"></use><use xlink:href="#SvgjsSymbol1008" x="125" y="137.5" fill="#00a70f"></use></g><g><use xlink:href="#SvgjsSymbol1006" x="50" y="181.25" fill="hsl(116, 66%, 57%)"></use><use xlink:href="#SvgjsSymbol1007" x="50" y="181.25" fill="#8cff7a"></use><use xlink:href="#SvgjsSymbol1008" x="50" y="181.25" fill="#00a70f"></use></g><g><use xlink:href="#SvgjsSymbol1006" x="87.5" y="750" fill="hsl(116, 66%, 57%)"></use><use xlink:href="#SvgjsSymbol1007" x="87.5" y="750" fill="#8cff7a"></use><use xlink:href="#SvgjsSymbol1008" x="87.5" y="750" fill="#00a70f"></use></g><g><use xlink:href="#SvgjsSymbol1006" x="175" y="581.25" fill="hsl(116, 66%, 57%)"></use><use xlink:href="#SvgjsSymbol1007" x="175" y="581.25" fill="#8cff7a"></use><use xlink:href="#SvgjsSymbol1008" x="175" y="581.25" fill="#00a70f"></use></g><g><use xlink:href="#SvgjsSymbol1006" x="87.5" y="131.25" fill="hsl(296, 87%, 43%)"></use><use xlink:href="#SvgjsSymbol1007" x="87.5" y="131.25" fill="#f658ff"></use><use xlink:href="#SvgjsSymbol1008" x="87.5" y="131.25" fill="#8b009b"></use></g><g><use xlink:href="#SvgjsSymbol1006" x="37.5" y="318.75" fill="hsl(296, 87%, 43%)"></use><use xlink:href="#SvgjsSymbol1007" x="37.5" y="318.75" fill="#f658ff"></use><use xlink:href="#SvgjsSymbol1008" x="37.5" y="318.75" fill="#8b009b"></use></g><g><use xlink:href="#SvgjsSymbol1006" x="175" y="381.25" fill="hsl(296, 87%, 43%)"></use><use xlink:href="#SvgjsSymbol1007" x="175" y="381.25" fill="#f658ff"></use><use xlink:href="#SvgjsSymbol1008" x="175" y="381.25" fill="#8b009b"></use></g><g><use xlink:href="#SvgjsSymbol1006" x="106.25" y="462.5" fill="hsl(296, 87%, 43%)"></use><use xlink:href="#SvgjsSymbol1007" x="106.25" y="462.5" fill="#f658ff"></use><use xlink:href="#SvgjsSymbol1008" x="106.25" y="462.5" fill="#8b009b"></use></g><g><use xlink:href="#SvgjsSymbol1006" x="137.5" y="625" fill="hsl(296, 87%, 43%)"></use><use xlink:href="#SvgjsSymbol1007" x="137.5" y="625" fill="#f658ff"></use><use xlink:href="#SvgjsSymbol1008" x="137.5" y="625" fill="#8b009b"></use></g><g><use xlink:href="#SvgjsSymbol1006" x="212.5" y="700" fill="hsl(296, 87%, 43%)"></use><use xlink:href="#SvgjsSymbol1007" x="212.5" y="700" fill="#f658ff"></use><use xlink:href="#SvgjsSymbol1008" x="212.5" y="700" fill="#8b009b"></use></g><g><use xlink:href="#SvgjsSymbol1006" x="187.5" y="531.25" fill="hsl(296, 87%, 43%)"></use><use xlink:href="#SvgjsSymbol1007" x="187.5" y="531.25" fill="#f658ff"></use><use xlink:href="#SvgjsSymbol1008" x="187.5" y="531.25" fill="#8b009b"></use></g><g><use xlink:href="#SvgjsSymbol1006" x="743.75" y="387.5" fill="hsl(296, 87%, 43%)"></use><use xlink:href="#SvgjsSymbol1007" x="743.75" y="387.5" fill="#f658ff"></use><use xlink:href="#SvgjsSymbol1008" x="743.75" y="387.5" fill="#8b009b"></use></g><g><use xlink:href="#SvgjsSymbol1006" x="693.75" y="612.5" fill="hsl(116, 76%, 45%)"></use><use xlink:href="#SvgjsSymbol1007" x="693.75" y="612.5" fill="#6dfe56"></use><use xlink:href="#SvgjsSymbol1008" x="693.75" y="612.5" fill="#009800"></use></g><g><use xlink:href="#SvgjsSymbol1006" x="618.75" y="606.25" fill="hsl(116, 76%, 45%)"></use><use xlink:href="#SvgjsSymbol1007" x="618.75" y="606.25" fill="#6dfe56"></use><use xlink:href="#SvgjsSymbol1008" x="618.75" y="606.25" fill="#009800"></use></g><g><use xlink:href="#SvgjsSymbol1006" x="700" y="743.75" fill="hsl(116, 76%, 45%)"></use><use xlink:href="#SvgjsSymbol1007" x="700" y="743.75" fill="#6dfe56"></use><use xlink:href="#SvgjsSymbol1008" x="700" y="743.75" fill="#009800"></use></g><g><use xlink:href="#SvgjsSymbol1006" x="581.25" y="193.75" fill="hsl(116, 76%, 45%)"></use><use xlink:href="#SvgjsSymbol1007" x="581.25" y="193.75" fill="#6dfe56"></use><use xlink:href="#SvgjsSymbol1008" x="581.25" y="193.75" fill="#009800"></use></g><g><use xlink:href="#SvgjsSymbol1006" x="606.25" y="281.25" fill="hsl(116, 76%, 45%)"></use><use xlink:href="#SvgjsSymbol1007" x="606.25" y="281.25" fill="#6dfe56"></use><use xlink:href="#SvgjsSymbol1008" x="606.25" y="281.25" fill="#009800"></use></g><g><use xlink:href="#SvgjsSymbol1006" x="775" y="200" fill="hsl(116, 76%, 45%)"></use><use xlink:href="#SvgjsSymbol1007" x="775" y="200" fill="#6dfe56"></use><use xlink:href="#SvgjsSymbol1008" x="775" y="200" fill="#009800"></use></g><g><use xlink:href="#SvgjsSymbol1006" x="725" y="37.5" fill="hsl(116, 76%, 45%)"></use><use xlink:href="#SvgjsSymbol1007" x="725" y="37.5" fill="#6dfe56"></use><use xlink:href="#SvgjsSymbol1008" x="725" y="37.5" fill="#009800"></use></g><g><use xlink:href="#SvgjsSymbol1006" x="737.5" y="100" fill="hsl(116, 76%, 45%)"></use><use xlink:href="#SvgjsSymbol1007" x="737.5" y="100" fill="#6dfe56"></use><use xlink:href="#SvgjsSymbol1008" x="737.5" y="100" fill="#009800"></use></g></g><g></g></svg>