<svg id="visual" viewBox="0 0 1920 1080" width="1920" height="1080" xmlns="http://www.w3.org/2000/svg" xmlns:xlink="http://www.w3.org/1999/xlink" version="1.1"><rect x="0" y="0" width="1920" height="1080" fill="#001220"></rect><path d="M692 0L684 30C676 60 660 120 671.8 180C683.7 240 723.3 300 723.5 360C723.7 420 684.3 480 680.5 540C676.7 600 708.3 660 707.3 720C706.3 780 672.7 840 671.8 900C671 960 703 1020 719 1050L735 1080L0 1080L0 1050C0 1020 0 960 0 900C0 840 0 780 0 720C0 660 0 600 0 540C0 480 0 420 0 360C0 300 0 240 0 180C0 120 0 60 0 30L0 0Z" fill="#83fa69"></path><path d="M631 0L609.7 30C588.3 60 545.7 120 533.3 180C521 240 539 300 532.3 360C525.7 420 494.3 480 494 540C493.7 600 524.3 660 544 720C563.7 780 572.3 840 567.2 900C562 960 543 1020 533.5 1050L524 1080L0 1080L0 1050C0 1020 0 960 0 900C0 840 0 780 0 720C0 660 0 600 0 540C0 480 0 420 0 360C0 300 0 240 0 180C0 120 0 60 0 30L0 0Z" fill="#53c057"></path><path d="M346 0L367.7 30C389.3 60 432.7 120 444.7 180C456.7 240 437.3 300 416.8 360C396.3 420 374.7 480 387.3 540C400 600 447 660 477.5 720C508 780 522 840 515.5 900C509 960 482 1020 468.5 1050L455 1080L0 1080L0 1050C0 1020 0 960 0 900C0 840 0 780 0 720C0 660 0 600 0 540C0 480 0 420 0 360C0 300 0 240 0 180C0 120 0 60 0 30L0 0Z" fill="#2c8842"></path><path d="M270 0L279.8 30C289.7 60 309.3 120 317.5 180C325.7 240 322.3 300 308.7 360C295 420 271 480 256.2 540C241.3 600 235.7 660 244 720C252.3 780 274.7 840 273.3 900C272 960 247 1020 234.5 1050L222 1080L0 1080L0 1050C0 1020 0 960 0 900C0 840 0 780 0 720C0 660 0 600 0 540C0 480 0 420 0 360C0 300 0 240 0 180C0 120 0 60 0 30L0 0Z" fill="#0d542a"></path><path d="M184 0L185.5 30C187 60 190 120 194.8 180C199.7 240 206.3 300 197.5 360C188.7 420 164.3 480 155.3 540C146.3 600 152.7 660 146.3 720C140 780 121 840 127.2 900C133.3 960 164.7 1020 180.3 1050L196 1080L0 1080L0 1050C0 1020 0 960 0 900C0 840 0 780 0 720C0 660 0 600 0 540C0 480 0 420 0 360C0 300 0 240 0 180C0 120 0 60 0 30L0 0Z" fill="#002411"></path></svg>