<svg id="visual" viewBox="0 0 1920 9000" width="1920" height="9000" xmlns="http://www.w3.org/2000/svg" xmlns:xlink="http://www.w3.org/1999/xlink" version="1.1"><rect x="0" y="0" width="1920" height="9000" fill="#001220"></rect><path d="M240 0L260.8 166.7C281.7 333.3 323.3 666.7 323.7 1000C324 1333.3 283 1666.7 272.2 2000C261.3 2333.3 280.7 2666.7 292.7 3000C304.7 3333.3 309.3 3666.7 307.8 4000C306.3 4333.3 298.7 4666.7 285 5000C271.3 5333.3 251.7 5666.7 251.8 6000C252 6333.3 272 6666.7 284.2 7000C296.3 7333.3 300.7 7666.7 297.5 8000C294.3 8333.3 283.7 8666.7 278.3 8833.3L273 9000L0 9000L0 8833.3C0 8666.7 0 8333.3 0 8000C0 7666.7 0 7333.3 0 7000C0 6666.7 0 6333.3 0 6000C0 5666.7 0 5333.3 0 5000C0 4666.7 0 4333.3 0 4000C0 3666.7 0 3333.3 0 3000C0 2666.7 0 2333.3 0 2000C0 1666.7 0 1333.3 0 1000C0 666.7 0 333.3 0 166.7L0 0Z" fill="#4be141"></path><path d="M179 0L184.7 166.7C190.3 333.3 201.7 666.7 217.8 1000C234 1333.3 255 1666.7 257.7 2000C260.3 2333.3 244.7 2666.7 249 3000C253.3 3333.3 277.7 3666.7 275.5 4000C273.3 4333.3 244.7 4666.7 239.5 5000C234.3 5333.3 252.7 5666.7 247.8 6000C243 6333.3 215 6666.7 218.3 7000C221.7 7333.3 256.3 7666.7 266.2 8000C276 8333.3 261 8666.7 253.5 8833.3L246 9000L0 9000L0 8833.3C0 8666.7 0 8333.3 0 8000C0 7666.7 0 7333.3 0 7000C0 6666.7 0 6333.3 0 6000C0 5666.7 0 5333.3 0 5000C0 4666.7 0 4333.3 0 4000C0 3666.7 0 3333.3 0 3000C0 2666.7 0 2333.3 0 2000C0 1666.7 0 1333.3 0 1000C0 666.7 0 333.3 0 166.7L0 0Z" fill="#27ad39"></path><path d="M232 0L217.2 166.7C202.3 333.3 172.7 666.7 174.2 1000C175.7 1333.3 208.3 1666.7 209 2000C209.7 2333.3 178.3 2666.7 177.8 3000C177.3 3333.3 207.7 3666.7 205.5 4000C203.3 4333.3 168.7 4666.7 163.3 5000C158 5333.3 182 5666.7 195.3 6000C208.7 6333.3 211.3 6666.7 202.2 7000C193 7333.3 172 7666.7 174 8000C176 8333.3 201 8666.7 213.5 8833.3L226 9000L0 9000L0 8833.3C0 8666.7 0 8333.3 0 8000C0 7666.7 0 7333.3 0 7000C0 6666.7 0 6333.3 0 6000C0 5666.7 0 5333.3 0 5000C0 4666.7 0 4333.3 0 4000C0 3666.7 0 3333.3 0 3000C0 2666.7 0 2333.3 0 2000C0 1666.7 0 1333.3 0 1000C0 666.7 0 333.3 0 166.7L0 0Z" fill="#097b2d"></path><path d="M131 0L129.8 166.7C128.7 333.3 126.3 666.7 123.8 1000C121.3 1333.3 118.7 1666.7 109.7 2000C100.7 2333.3 85.3 2666.7 84 3000C82.7 3333.3 95.3 3666.7 111.5 4000C127.7 4333.3 147.3 4666.7 155.7 5000C164 5333.3 161 5666.7 151 6000C141 6333.3 124 6666.7 123.8 7000C123.7 7333.3 140.3 7666.7 141.7 8000C143 8333.3 129 8666.7 122 8833.3L115 9000L0 9000L0 8833.3C0 8666.7 0 8333.3 0 8000C0 7666.7 0 7333.3 0 7000C0 6666.7 0 6333.3 0 6000C0 5666.7 0 5333.3 0 5000C0 4666.7 0 4333.3 0 4000C0 3666.7 0 3333.3 0 3000C0 2666.7 0 2333.3 0 2000C0 1666.7 0 1333.3 0 1000C0 666.7 0 333.3 0 166.7L0 0Z" fill="#004c1e"></path><path d="M50 0L57 166.7C64 333.3 78 666.7 72.8 1000C67.7 1333.3 43.3 1666.7 42.3 2000C41.3 2333.3 63.7 2666.7 77.2 3000C90.7 3333.3 95.3 3666.7 89.7 4000C84 4333.3 68 4666.7 64.5 5000C61 5333.3 70 5666.7 65.5 6000C61 6333.3 43 6666.7 47 7000C51 7333.3 77 7666.7 83.2 8000C89.3 8333.3 75.7 8666.7 68.8 8833.3L62 9000L0 9000L0 8833.3C0 8666.7 0 8333.3 0 8000C0 7666.7 0 7333.3 0 7000C0 6666.7 0 6333.3 0 6000C0 5666.7 0 5333.3 0 5000C0 4666.7 0 4333.3 0 4000C0 3666.7 0 3333.3 0 3000C0 2666.7 0 2333.3 0 2000C0 1666.7 0 1333.3 0 1000C0 666.7 0 333.3 0 166.7L0 0Z" fill="#00220b"></path></svg>