<svg id="visual" viewBox="0 0 1920 7000" width="1920" height="7000" xmlns="http://www.w3.org/2000/svg" xmlns:xlink="http://www.w3.org/1999/xlink" version="1.1"><rect x="0" y="0" width="1920" height="7000" fill="#BEDBC7"></rect><path d="M346 0L337.5 64.8C329 129.7 312 259.3 314.2 389C316.3 518.7 337.7 648.3 339.2 778C340.7 907.7 322.3 1037.3 318.3 1167C314.3 1296.7 324.7 1426.3 328 1555.8C331.3 1685.3 327.7 1814.7 327.2 1944.2C326.7 2073.7 329.3 2203.3 324.8 2333C320.3 2462.7 308.7 2592.3 312.3 2722C316 2851.7 335 2981.3 336.7 3111C338.3 3240.7 322.7 3370.3 323.2 3500C323.7 3629.7 340.3 3759.3 346.5 3889C352.7 4018.7 348.3 4148.3 341.5 4278C334.7 4407.7 325.3 4537.3 319.5 4667C313.7 4796.7 311.3 4926.3 306 5055.8C300.7 5185.3 292.3 5314.7 291.7 5444.2C291 5573.7 298 5703.3 292.2 5833C286.3 5962.7 267.7 6092.3 268 6222C268.3 6351.7 287.7 6481.3 307 6611C326.3 6740.7 345.7 6870.3 355.3 6935.2L365 7000L0 7000L0 6935.2C0 6870.3 0 6740.7 0 6611C0 6481.3 0 6351.7 0 6222C0 6092.3 0 5962.7 0 5833C0 5703.3 0 5573.7 0 5444.2C0 5314.7 0 5185.3 0 5055.8C0 4926.3 0 4796.7 0 4667C0 4537.3 0 4407.7 0 4278C0 4148.3 0 4018.7 0 3889C0 3759.3 0 3629.7 0 3500C0 3370.3 0 3240.7 0 3111C0 2981.3 0 2851.7 0 2722C0 2592.3 0 2462.7 0 2333C0 2203.3 0 2073.7 0 1944.2C0 1814.7 0 1685.3 0 1555.8C0 1426.3 0 1296.7 0 1167C0 1037.3 0 907.7 0 778C0 648.3 0 518.7 0 389C0 259.3 0 129.7 0 64.8L0 0Z" fill="#4be141"></path><path d="M199 0L212.8 64.8C226.7 129.7 254.3 259.3 258.7 389C263 518.7 244 648.3 232.2 778C220.3 907.7 215.7 1037.3 217.7 1167C219.7 1296.7 228.3 1426.3 227.8 1555.8C227.3 1685.3 217.7 1814.7 220 1944.2C222.3 2073.7 236.7 2203.3 238.7 2333C240.7 2462.7 230.3 2592.3 227.8 2722C225.3 2851.7 230.7 2981.3 226 3111C221.3 3240.7 206.7 3370.3 218.7 3500C230.7 3629.7 269.3 3759.3 288.2 3889C307 4018.7 306 4148.3 303.7 4278C301.3 4407.7 297.7 4537.3 297 4667C296.3 4796.7 298.7 4926.3 286 5055.8C273.3 5185.3 245.7 5314.7 243 5444.2C240.3 5573.7 262.7 5703.3 259.3 5833C256 5962.7 227 6092.3 221.2 6222C215.3 6351.7 232.7 6481.3 234.7 6611C236.7 6740.7 223.3 6870.3 216.7 6935.2L210 7000L0 7000L0 6935.2C0 6870.3 0 6740.7 0 6611C0 6481.3 0 6351.7 0 6222C0 6092.3 0 5962.7 0 5833C0 5703.3 0 5573.7 0 5444.2C0 5314.7 0 5185.3 0 5055.8C0 4926.3 0 4796.7 0 4667C0 4537.3 0 4407.7 0 4278C0 4148.3 0 4018.7 0 3889C0 3759.3 0 3629.7 0 3500C0 3370.3 0 3240.7 0 3111C0 2981.3 0 2851.7 0 2722C0 2592.3 0 2462.7 0 2333C0 2203.3 0 2073.7 0 1944.2C0 1814.7 0 1685.3 0 1555.8C0 1426.3 0 1296.7 0 1167C0 1037.3 0 907.7 0 778C0 648.3 0 518.7 0 389C0 259.3 0 129.7 0 64.8L0 0Z" fill="#2eb73b"></path><path d="M183 0L178.7 64.8C174.3 129.7 165.7 259.3 176.2 389C186.7 518.7 216.3 648.3 223.3 778C230.3 907.7 214.7 1037.3 199.7 1167C184.7 1296.7 170.3 1426.3 180.3 1555.8C190.3 1685.3 224.7 1814.7 234.5 1944.2C244.3 2073.7 229.7 2203.3 214.7 2333C199.7 2462.7 184.3 2592.3 175.2 2722C166 2851.7 163 2981.3 164 3111C165 3240.7 170 3370.3 176 3500C182 3629.7 189 3759.3 194.8 3889C200.7 4018.7 205.3 4148.3 216 4278C226.7 4407.7 243.3 4537.3 233.2 4667C223 4796.7 186 4926.3 183.8 5055.8C181.7 5185.3 214.3 5314.7 222.8 5444.2C231.3 5573.7 215.7 5703.3 214.7 5833C213.7 5962.7 227.3 6092.3 223.7 6222C220 6351.7 199 6481.3 184.3 6611C169.7 6740.7 161.3 6870.3 157.2 6935.2L153 7000L0 7000L0 6935.2C0 6870.3 0 6740.7 0 6611C0 6481.3 0 6351.7 0 6222C0 6092.3 0 5962.7 0 5833C0 5703.3 0 5573.7 0 5444.2C0 5314.7 0 5185.3 0 5055.8C0 4926.3 0 4796.7 0 4667C0 4537.3 0 4407.7 0 4278C0 4148.3 0 4018.7 0 3889C0 3759.3 0 3629.7 0 3500C0 3370.3 0 3240.7 0 3111C0 2981.3 0 2851.7 0 2722C0 2592.3 0 2462.7 0 2333C0 2203.3 0 2073.7 0 1944.2C0 1814.7 0 1685.3 0 1555.8C0 1426.3 0 1296.7 0 1167C0 1037.3 0 907.7 0 778C0 648.3 0 518.7 0 389C0 259.3 0 129.7 0 64.8L0 0Z" fill="#158f32"></path><path d="M183 0L179.5 64.8C176 129.7 169 259.3 170.7 389C172.3 518.7 182.7 648.3 173.5 778C164.3 907.7 135.7 1037.3 136 1167C136.3 1296.7 165.7 1426.3 179.5 1555.8C193.3 1685.3 191.7 1814.7 187 1944.2C182.3 2073.7 174.7 2203.3 167.8 2333C161 2462.7 155 2592.3 149 2722C143 2851.7 137 2981.3 144.5 3111C152 3240.7 173 3370.3 175.2 3500C177.3 3629.7 160.7 3759.3 148.5 3889C136.3 4018.7 128.7 4148.3 131.2 4278C133.7 4407.7 146.3 4537.3 160.5 4667C174.7 4796.7 190.3 4926.3 181 5055.8C171.7 5185.3 137.3 5314.7 122 5444.2C106.7 5573.7 110.3 5703.3 117.2 5833C124 5962.7 134 6092.3 147.2 6222C160.3 6351.7 176.7 6481.3 187 6611C197.3 6740.7 201.7 6870.3 203.8 6935.2L206 7000L0 7000L0 6935.2C0 6870.3 0 6740.7 0 6611C0 6481.3 0 6351.7 0 6222C0 6092.3 0 5962.7 0 5833C0 5703.3 0 5573.7 0 5444.2C0 5314.7 0 5185.3 0 5055.8C0 4926.3 0 4796.7 0 4667C0 4537.3 0 4407.7 0 4278C0 4148.3 0 4018.7 0 3889C0 3759.3 0 3629.7 0 3500C0 3370.3 0 3240.7 0 3111C0 2981.3 0 2851.7 0 2722C0 2592.3 0 2462.7 0 2333C0 2203.3 0 2073.7 0 1944.2C0 1814.7 0 1685.3 0 1555.8C0 1426.3 0 1296.7 0 1167C0 1037.3 0 907.7 0 778C0 648.3 0 518.7 0 389C0 259.3 0 129.7 0 64.8L0 0Z" fill="#016827"></path><path d="M77 0L85.5 64.8C94 129.7 111 259.3 117.8 389C124.7 518.7 121.3 648.3 118.5 778C115.7 907.7 113.3 1037.3 111.2 1167C109 1296.7 107 1426.3 98.3 1555.8C89.7 1685.3 74.3 1814.7 76.3 1944.2C78.3 2073.7 97.7 2203.3 105.5 2333C113.3 2462.7 109.7 2592.3 108.5 2722C107.3 2851.7 108.7 2981.3 109.5 3111C110.3 3240.7 110.7 3370.3 115.8 3500C121 3629.7 131 3759.3 136.3 3889C141.7 4018.7 142.3 4148.3 140.5 4278C138.7 4407.7 134.3 4537.3 130.2 4667C126 4796.7 122 4926.3 125 5055.8C128 5185.3 138 5314.7 134.2 5444.2C130.3 5573.7 112.7 5703.3 110.7 5833C108.7 5962.7 122.3 6092.3 128.8 6222C135.3 6351.7 134.7 6481.3 133 6611C131.3 6740.7 128.7 6870.3 127.3 6935.2L126 7000L0 7000L0 6935.2C0 6870.3 0 6740.7 0 6611C0 6481.3 0 6351.7 0 6222C0 6092.3 0 5962.7 0 5833C0 5703.3 0 5573.7 0 5444.2C0 5314.7 0 5185.3 0 5055.8C0 4926.3 0 4796.7 0 4667C0 4537.3 0 4407.7 0 4278C0 4148.3 0 4018.7 0 3889C0 3759.3 0 3629.7 0 3500C0 3370.3 0 3240.7 0 3111C0 2981.3 0 2851.7 0 2722C0 2592.3 0 2462.7 0 2333C0 2203.3 0 2073.7 0 1944.2C0 1814.7 0 1685.3 0 1555.8C0 1426.3 0 1296.7 0 1167C0 1037.3 0 907.7 0 778C0 648.3 0 518.7 0 389C0 259.3 0 129.7 0 64.8L0 0Z" fill="#00431b"></path><path d="M71 0L74.2 64.8C77.3 129.7 83.7 259.3 79.3 389C75 518.7 60 648.3 53.3 778C46.7 907.7 48.3 1037.3 52.3 1167C56.3 1296.7 62.7 1426.3 64 1555.8C65.3 1685.3 61.7 1814.7 61.7 1944.2C61.7 2073.7 65.3 2203.3 70.5 2333C75.7 2462.7 82.3 2592.3 79.7 2722C77 2851.7 65 2981.3 58.7 3111C52.3 3240.7 51.7 3370.3 47 3500C42.3 3629.7 33.7 3759.3 32.7 3889C31.7 4018.7 38.3 4148.3 45.3 4278C52.3 4407.7 59.7 4537.3 55.3 4667C51 4796.7 35 4926.3 38.2 5055.8C41.3 5185.3 63.7 5314.7 74.7 5444.2C85.7 5573.7 85.3 5703.3 81.2 5833C77 5962.7 69 6092.3 69.5 6222C70 6351.7 79 6481.3 73.5 6611C68 6740.7 48 6870.3 38 6935.2L28 7000L0 7000L0 6935.2C0 6870.3 0 6740.7 0 6611C0 6481.3 0 6351.7 0 6222C0 6092.3 0 5962.7 0 5833C0 5703.3 0 5573.7 0 5444.2C0 5314.7 0 5185.3 0 5055.8C0 4926.3 0 4796.7 0 4667C0 4537.3 0 4407.7 0 4278C0 4148.3 0 4018.7 0 3889C0 3759.3 0 3629.7 0 3500C0 3370.3 0 3240.7 0 3111C0 2981.3 0 2851.7 0 2722C0 2592.3 0 2462.7 0 2333C0 2203.3 0 2073.7 0 1944.2C0 1814.7 0 1685.3 0 1555.8C0 1426.3 0 1296.7 0 1167C0 1037.3 0 907.7 0 778C0 648.3 0 518.7 0 389C0 259.3 0 129.7 0 64.8L0 0Z" fill="#00220b"></path></svg>