<svg id="visual" viewBox="0 0 1920 7000" width="1920" height="7000" xmlns="http://www.w3.org/2000/svg" xmlns:xlink="http://www.w3.org/1999/xlink" version="1.1"><rect x="0" y="0" width="1920" height="7000" fill="#001220"></rect><path d="M350 0L332.8 64.8C315.7 129.7 281.3 259.3 282.2 389C283 518.7 319 648.3 318.7 778C318.3 907.7 281.7 1037.3 271.7 1167C261.7 1296.7 278.3 1426.3 297.2 1555.8C316 1685.3 337 1814.7 340.8 1944.2C344.7 2073.7 331.3 2203.3 319.3 2333C307.3 2462.7 296.7 2592.3 287.5 2722C278.3 2851.7 270.7 2981.3 273.5 3111C276.3 3240.7 289.7 3370.3 290.7 3500C291.7 3629.7 280.3 3759.3 278.8 3889C277.3 4018.7 285.7 4148.3 284.7 4278C283.7 4407.7 273.3 4537.3 284.2 4667C295 4796.7 327 4926.3 340.5 5055.8C354 5185.3 349 5314.7 336.7 5444.2C324.3 5573.7 304.7 5703.3 294.7 5833C284.7 5962.7 284.3 6092.3 292.8 6222C301.3 6351.7 318.7 6481.3 320 6611C321.3 6740.7 306.7 6870.3 299.3 6935.2L292 7000L0 7000L0 6935.2C0 6870.3 0 6740.7 0 6611C0 6481.3 0 6351.7 0 6222C0 6092.3 0 5962.7 0 5833C0 5703.3 0 5573.7 0 5444.2C0 5314.7 0 5185.3 0 5055.8C0 4926.3 0 4796.7 0 4667C0 4537.3 0 4407.7 0 4278C0 4148.3 0 4018.7 0 3889C0 3759.3 0 3629.7 0 3500C0 3370.3 0 3240.7 0 3111C0 2981.3 0 2851.7 0 2722C0 2592.3 0 2462.7 0 2333C0 2203.3 0 2073.7 0 1944.2C0 1814.7 0 1685.3 0 1555.8C0 1426.3 0 1296.7 0 1167C0 1037.3 0 907.7 0 778C0 648.3 0 518.7 0 389C0 259.3 0 129.7 0 64.8L0 0Z" fill="#4be141"></path><path d="M215 0L226.3 64.8C237.7 129.7 260.3 259.3 266.8 389C273.3 518.7 263.7 648.3 260.3 778C257 907.7 260 1037.3 265.3 1167C270.7 1296.7 278.3 1426.3 285.3 1555.8C292.3 1685.3 298.7 1814.7 299.2 1944.2C299.7 2073.7 294.3 2203.3 295.8 2333C297.3 2462.7 305.7 2592.3 304.8 2722C304 2851.7 294 2981.3 279.2 3111C264.3 3240.7 244.7 3370.3 239.5 3500C234.3 3629.7 243.7 3759.3 253.7 3889C263.7 4018.7 274.3 4148.3 277.2 4278C280 4407.7 275 4537.3 273.3 4667C271.7 4796.7 273.3 4926.3 272.5 5055.8C271.7 5185.3 268.3 5314.7 270.8 5444.2C273.3 5573.7 281.7 5703.3 280.8 5833C280 5962.7 270 6092.3 266.5 6222C263 6351.7 266 6481.3 264.7 6611C263.3 6740.7 257.7 6870.3 254.8 6935.2L252 7000L0 7000L0 6935.2C0 6870.3 0 6740.7 0 6611C0 6481.3 0 6351.7 0 6222C0 6092.3 0 5962.7 0 5833C0 5703.3 0 5573.7 0 5444.2C0 5314.7 0 5185.3 0 5055.8C0 4926.3 0 4796.7 0 4667C0 4537.3 0 4407.7 0 4278C0 4148.3 0 4018.7 0 3889C0 3759.3 0 3629.7 0 3500C0 3370.3 0 3240.7 0 3111C0 2981.3 0 2851.7 0 2722C0 2592.3 0 2462.7 0 2333C0 2203.3 0 2073.7 0 1944.2C0 1814.7 0 1685.3 0 1555.8C0 1426.3 0 1296.7 0 1167C0 1037.3 0 907.7 0 778C0 648.3 0 518.7 0 389C0 259.3 0 129.7 0 64.8L0 0Z" fill="#2eb73b"></path><path d="M211 0L212.5 64.8C214 129.7 217 259.3 206.5 389C196 518.7 172 648.3 163.3 778C154.7 907.7 161.3 1037.3 161.3 1167C161.3 1296.7 154.7 1426.3 157.3 1555.8C160 1685.3 172 1814.7 184.8 1944.2C197.7 2073.7 211.3 2203.3 212 2333C212.7 2462.7 200.3 2592.3 189.8 2722C179.3 2851.7 170.7 2981.3 173.3 3111C176 3240.7 190 3370.3 206.3 3500C222.7 3629.7 241.3 3759.3 245.8 3889C250.3 4018.7 240.7 4148.3 231.7 4278C222.7 4407.7 214.3 4537.3 207 4667C199.7 4796.7 193.3 4926.3 186.2 5055.8C179 5185.3 171 5314.7 170.3 5444.2C169.7 5573.7 176.3 5703.3 183.2 5833C190 5962.7 197 6092.3 204.5 6222C212 6351.7 220 6481.3 220.8 6611C221.7 6740.7 215.3 6870.3 212.2 6935.2L209 7000L0 7000L0 6935.2C0 6870.3 0 6740.7 0 6611C0 6481.3 0 6351.7 0 6222C0 6092.3 0 5962.7 0 5833C0 5703.3 0 5573.7 0 5444.2C0 5314.7 0 5185.3 0 5055.8C0 4926.3 0 4796.7 0 4667C0 4537.3 0 4407.7 0 4278C0 4148.3 0 4018.7 0 3889C0 3759.3 0 3629.7 0 3500C0 3370.3 0 3240.7 0 3111C0 2981.3 0 2851.7 0 2722C0 2592.3 0 2462.7 0 2333C0 2203.3 0 2073.7 0 1944.2C0 1814.7 0 1685.3 0 1555.8C0 1426.3 0 1296.7 0 1167C0 1037.3 0 907.7 0 778C0 648.3 0 518.7 0 389C0 259.3 0 129.7 0 64.8L0 0Z" fill="#158f32"></path><path d="M164 0L161 64.8C158 129.7 152 259.3 154.2 389C156.3 518.7 166.7 648.3 171.2 778C175.7 907.7 174.3 1037.3 177.5 1167C180.7 1296.7 188.3 1426.3 184 1555.8C179.7 1685.3 163.3 1814.7 157.3 1944.2C151.3 2073.7 155.7 2203.3 153 2333C150.3 2462.7 140.7 2592.3 137.5 2722C134.3 2851.7 137.7 2981.3 140.3 3111C143 3240.7 145 3370.3 146.7 3500C148.3 3629.7 149.7 3759.3 143.5 3889C137.3 4018.7 123.7 4148.3 128.8 4278C134 4407.7 158 4537.3 173.3 4667C188.7 4796.7 195.3 4926.3 197 5055.8C198.7 5185.3 195.3 5314.7 186.2 5444.2C177 5573.7 162 5703.3 160.3 5833C158.7 5962.7 170.3 6092.3 176.8 6222C183.3 6351.7 184.7 6481.3 184.5 6611C184.3 6740.7 182.7 6870.3 181.8 6935.2L181 7000L0 7000L0 6935.2C0 6870.3 0 6740.7 0 6611C0 6481.3 0 6351.7 0 6222C0 6092.3 0 5962.7 0 5833C0 5703.3 0 5573.7 0 5444.2C0 5314.7 0 5185.3 0 5055.8C0 4926.3 0 4796.7 0 4667C0 4537.3 0 4407.7 0 4278C0 4148.3 0 4018.7 0 3889C0 3759.3 0 3629.7 0 3500C0 3370.3 0 3240.7 0 3111C0 2981.3 0 2851.7 0 2722C0 2592.3 0 2462.7 0 2333C0 2203.3 0 2073.7 0 1944.2C0 1814.7 0 1685.3 0 1555.8C0 1426.3 0 1296.7 0 1167C0 1037.3 0 907.7 0 778C0 648.3 0 518.7 0 389C0 259.3 0 129.7 0 64.8L0 0Z" fill="#016827"></path><path d="M116 0L115.5 64.8C115 129.7 114 259.3 114 389C114 518.7 115 648.3 119.5 778C124 907.7 132 1037.3 132.2 1167C132.3 1296.7 124.7 1426.3 125.5 1555.8C126.3 1685.3 135.7 1814.7 129.8 1944.2C124 2073.7 103 2203.3 93.5 2333C84 2462.7 86 2592.3 87.2 2722C88.3 2851.7 88.7 2981.3 95.5 3111C102.3 3240.7 115.7 3370.3 114.5 3500C113.3 3629.7 97.7 3759.3 100.2 3889C102.7 4018.7 123.3 4148.3 125.3 4278C127.3 4407.7 110.7 4537.3 98.2 4667C85.7 4796.7 77.3 4926.3 71.7 5055.8C66 5185.3 63 5314.7 64.7 5444.2C66.3 5573.7 72.7 5703.3 86.8 5833C101 5962.7 123 6092.3 120.2 6222C117.3 6351.7 89.7 6481.3 79 6611C68.3 6740.7 74.7 6870.3 77.8 6935.2L81 7000L0 7000L0 6935.2C0 6870.3 0 6740.7 0 6611C0 6481.3 0 6351.7 0 6222C0 6092.3 0 5962.7 0 5833C0 5703.3 0 5573.7 0 5444.2C0 5314.7 0 5185.3 0 5055.8C0 4926.3 0 4796.7 0 4667C0 4537.3 0 4407.7 0 4278C0 4148.3 0 4018.7 0 3889C0 3759.3 0 3629.7 0 3500C0 3370.3 0 3240.7 0 3111C0 2981.3 0 2851.7 0 2722C0 2592.3 0 2462.7 0 2333C0 2203.3 0 2073.7 0 1944.2C0 1814.7 0 1685.3 0 1555.8C0 1426.3 0 1296.7 0 1167C0 1037.3 0 907.7 0 778C0 648.3 0 518.7 0 389C0 259.3 0 129.7 0 64.8L0 0Z" fill="#00431b"></path><path d="M30 0L31 64.8C32 129.7 34 259.3 41.5 389C49 518.7 62 648.3 66.8 778C71.7 907.7 68.3 1037.3 64.5 1167C60.7 1296.7 56.3 1426.3 52.8 1555.8C49.3 1685.3 46.7 1814.7 44.7 1944.2C42.7 2073.7 41.3 2203.3 39.3 2333C37.3 2462.7 34.7 2592.3 35.3 2722C36 2851.7 40 2981.3 43 3111C46 3240.7 48 3370.3 50.8 3500C53.7 3629.7 57.3 3759.3 51.5 3889C45.7 4018.7 30.3 4148.3 22.3 4278C14.3 4407.7 13.7 4537.3 22.5 4667C31.3 4796.7 49.7 4926.3 51.5 5055.8C53.3 5185.3 38.7 5314.7 35.3 5444.2C32 5573.7 40 5703.3 45.7 5833C51.3 5962.7 54.7 6092.3 48.8 6222C43 6351.7 28 6481.3 30.7 6611C33.3 6740.7 53.7 6870.3 63.8 6935.2L74 7000L0 7000L0 6935.2C0 6870.3 0 6740.7 0 6611C0 6481.3 0 6351.7 0 6222C0 6092.3 0 5962.7 0 5833C0 5703.3 0 5573.7 0 5444.2C0 5314.7 0 5185.3 0 5055.8C0 4926.3 0 4796.7 0 4667C0 4537.3 0 4407.7 0 4278C0 4148.3 0 4018.7 0 3889C0 3759.3 0 3629.7 0 3500C0 3370.3 0 3240.7 0 3111C0 2981.3 0 2851.7 0 2722C0 2592.3 0 2462.7 0 2333C0 2203.3 0 2073.7 0 1944.2C0 1814.7 0 1685.3 0 1555.8C0 1426.3 0 1296.7 0 1167C0 1037.3 0 907.7 0 778C0 648.3 0 518.7 0 389C0 259.3 0 129.7 0 64.8L0 0Z" fill="#00220b"></path></svg>