<svg id="visual" viewBox="0 0 900 450" width="900" height="450" xmlns="http://www.w3.org/2000/svg" xmlns:xlink="http://www.w3.org/1999/xlink" version="1.1"><rect x="0" y="0" width="900" height="450" fill="#001220"></rect><path d="M325 0L321.3 12.5C317.7 25 310.3 50 315.8 75C321.3 100 339.7 125 339.7 150C339.7 175 321.3 200 319.5 225C317.7 250 332.3 275 331.8 300C331.3 325 315.7 350 315.3 375C315 400 330 425 337.5 437.5L345 450L0 450L0 437.5C0 425 0 400 0 375C0 350 0 325 0 300C0 275 0 250 0 225C0 200 0 175 0 150C0 125 0 100 0 75C0 50 0 25 0 12.5L0 0Z" fill="#83fa69"></path><path d="M296 0L286 12.5C276 25 256 50 250.3 75C244.7 100 253.3 125 250.3 150C247.3 175 232.7 200 232.5 225C232.3 250 246.7 275 255.8 300C265 325 269 350 266.5 375C264 400 255 425 250.5 437.5L246 450L0 450L0 437.5C0 425 0 400 0 375C0 350 0 325 0 300C0 275 0 250 0 225C0 200 0 175 0 150C0 125 0 100 0 75C0 50 0 25 0 12.5L0 0Z" fill="#53c057"></path><path d="M163 0L173.2 12.5C183.3 25 203.7 50 209.2 75C214.7 100 205.3 125 195.7 150C186 175 176 200 182 225C188 250 210 275 224.3 300C238.7 325 245.3 350 242.3 375C239.3 400 226.7 425 220.3 437.5L214 450L0 450L0 437.5C0 425 0 400 0 375C0 350 0 325 0 300C0 275 0 250 0 225C0 200 0 175 0 150C0 125 0 100 0 75C0 50 0 25 0 12.5L0 0Z" fill="#2c8842"></path><path d="M127 0L131.7 12.5C136.3 25 145.7 50 149.5 75C153.3 100 151.7 125 145.2 150C138.7 175 127.3 200 120.3 225C113.3 250 110.7 275 114.7 300C118.7 325 129.3 350 128.8 375C128.3 400 116.7 425 110.8 437.5L105 450L0 450L0 437.5C0 425 0 400 0 375C0 350 0 325 0 300C0 275 0 250 0 225C0 200 0 175 0 150C0 125 0 100 0 75C0 50 0 25 0 12.5L0 0Z" fill="#0d542a"></path><path d="M87 0L87.7 12.5C88.3 25 89.7 50 91.8 75C94 100 97 125 92.8 150C88.7 175 77.3 200 73.2 225C69 250 72 275 69 300C66 325 57 350 59.8 375C62.7 400 77.3 425 84.7 437.5L92 450L0 450L0 437.5C0 425 0 400 0 375C0 350 0 325 0 300C0 275 0 250 0 225C0 200 0 175 0 150C0 125 0 100 0 75C0 50 0 25 0 12.5L0 0Z" fill="#002411"></path></svg>