<svg id="visual" viewBox="0 0 1920 9000" width="1920" height="9000" xmlns="http://www.w3.org/2000/svg" xmlns:xlink="http://www.w3.org/1999/xlink" version="1.1"><rect x="0" y="0" width="1920" height="9000" fill="#001220"></rect><path d="M229 0L247 93.8C265 187.7 301 375.3 316.7 562.8C332.3 750.3 327.7 937.7 317 1125.2C306.3 1312.7 289.7 1500.3 287.2 1687.8C284.7 1875.3 296.3 2062.7 299.5 2250.2C302.7 2437.7 297.3 2625.3 289.2 2812.8C281 3000.3 270 3187.7 276.5 3375.2C283 3562.7 307 3750.3 307 3937.8C307 4125.3 283 4312.7 275.8 4500.2C268.7 4687.7 278.3 4875.3 279.8 5062.8C281.3 5250.3 274.7 5437.7 278.2 5625.2C281.7 5812.7 295.3 6000.3 291.2 6187.8C287 6375.3 265 6562.7 270.3 6750.2C275.7 6937.7 308.3 7125.3 320.7 7312.8C333 7500.3 325 7687.7 323.3 7875.2C321.7 8062.7 326.3 8250.3 318.2 8437.8C310 8625.3 289 8812.7 278.5 8906.3L268 9000L0 9000L0 8906.3C0 8812.7 0 8625.3 0 8437.8C0 8250.3 0 8062.7 0 7875.2C0 7687.7 0 7500.3 0 7312.8C0 7125.3 0 6937.7 0 6750.2C0 6562.7 0 6375.3 0 6187.8C0 6000.3 0 5812.7 0 5625.2C0 5437.7 0 5250.3 0 5062.8C0 4875.3 0 4687.7 0 4500.2C0 4312.7 0 4125.3 0 3937.8C0 3750.3 0 3562.7 0 3375.2C0 3187.7 0 3000.3 0 2812.8C0 2625.3 0 2437.7 0 2250.2C0 2062.7 0 1875.3 0 1687.8C0 1500.3 0 1312.7 0 1125.2C0 937.7 0 750.3 0 562.8C0 375.3 0 187.7 0 93.8L0 0Z" fill="#4be141"></path><path d="M253 0L243 93.8C233 187.7 213 375.3 212.7 562.8C212.3 750.3 231.7 937.7 248.3 1125.2C265 1312.7 279 1500.3 273.8 1687.8C268.7 1875.3 244.3 2062.7 238.2 2250.2C232 2437.7 244 2625.3 240.5 2812.8C237 3000.3 218 3187.7 214.2 3375.2C210.3 3562.7 221.7 3750.3 222.3 3937.8C223 4125.3 213 4312.7 211.7 4500.2C210.3 4687.7 217.7 4875.3 219.8 5062.8C222 5250.3 219 5437.7 226.2 5625.2C233.3 5812.7 250.7 6000.3 245 6187.8C239.3 6375.3 210.7 6562.7 212.5 6750.2C214.3 6937.7 246.7 7125.3 256.7 7312.8C266.7 7500.3 254.3 7687.7 257 7875.2C259.7 8062.7 277.3 8250.3 271.5 8437.8C265.7 8625.3 236.3 8812.7 221.7 8906.3L207 9000L0 9000L0 8906.3C0 8812.7 0 8625.3 0 8437.8C0 8250.3 0 8062.7 0 7875.2C0 7687.7 0 7500.3 0 7312.8C0 7125.3 0 6937.7 0 6750.2C0 6562.7 0 6375.3 0 6187.8C0 6000.3 0 5812.7 0 5625.2C0 5437.7 0 5250.3 0 5062.8C0 4875.3 0 4687.7 0 4500.2C0 4312.7 0 4125.3 0 3937.8C0 3750.3 0 3562.7 0 3375.2C0 3187.7 0 3000.3 0 2812.8C0 2625.3 0 2437.7 0 2250.2C0 2062.7 0 1875.3 0 1687.8C0 1500.3 0 1312.7 0 1125.2C0 937.7 0 750.3 0 562.8C0 375.3 0 187.7 0 93.8L0 0Z" fill="#27ad39"></path><path d="M202 0L199.7 93.8C197.3 187.7 192.7 375.3 184.5 562.8C176.3 750.3 164.7 937.7 159.7 1125.2C154.7 1312.7 156.3 1500.3 159 1687.8C161.7 1875.3 165.3 2062.7 166.8 2250.2C168.3 2437.7 167.7 2625.3 168 2812.8C168.3 3000.3 169.7 3187.7 169 3375.2C168.3 3562.7 165.7 3750.3 158.2 3937.8C150.7 4125.3 138.3 4312.7 139.8 4500.2C141.3 4687.7 156.7 4875.3 174.7 5062.8C192.7 5250.3 213.3 5437.7 212.2 5625.2C211 5812.7 188 6000.3 185.5 6187.8C183 6375.3 201 6562.7 202 6750.2C203 6937.7 187 7125.3 172.7 7312.8C158.3 7500.3 145.7 7687.7 157 7875.2C168.3 8062.7 203.7 8250.3 210.7 8437.8C217.7 8625.3 196.3 8812.7 185.7 8906.3L175 9000L0 9000L0 8906.3C0 8812.7 0 8625.3 0 8437.8C0 8250.3 0 8062.7 0 7875.2C0 7687.7 0 7500.3 0 7312.8C0 7125.3 0 6937.7 0 6750.2C0 6562.7 0 6375.3 0 6187.8C0 6000.3 0 5812.7 0 5625.2C0 5437.7 0 5250.3 0 5062.8C0 4875.3 0 4687.7 0 4500.2C0 4312.7 0 4125.3 0 3937.8C0 3750.3 0 3562.7 0 3375.2C0 3187.7 0 3000.3 0 2812.8C0 2625.3 0 2437.7 0 2250.2C0 2062.7 0 1875.3 0 1687.8C0 1500.3 0 1312.7 0 1125.2C0 937.7 0 750.3 0 562.8C0 375.3 0 187.7 0 93.8L0 0Z" fill="#097b2d"></path><path d="M160 0L152.2 93.8C144.3 187.7 128.7 375.3 127.5 562.8C126.3 750.3 139.7 937.7 143.5 1125.2C147.3 1312.7 141.7 1500.3 128.2 1687.8C114.7 1875.3 93.3 2062.7 84.3 2250.2C75.3 2437.7 78.7 2625.3 88.8 2812.8C99 3000.3 116 3187.7 129.3 3375.2C142.7 3562.7 152.3 3750.3 151.2 3937.8C150 4125.3 138 4312.7 138 4500.2C138 4687.7 150 4875.3 153.2 5062.8C156.3 5250.3 150.7 5437.7 135.2 5625.2C119.7 5812.7 94.3 6000.3 85 6187.8C75.7 6375.3 82.3 6562.7 88.7 6750.2C95 6937.7 101 7125.3 113 7312.8C125 7500.3 143 7687.7 141.8 7875.2C140.7 8062.7 120.3 8250.3 108 8437.8C95.7 8625.3 91.3 8812.7 89.2 8906.3L87 9000L0 9000L0 8906.3C0 8812.7 0 8625.3 0 8437.8C0 8250.3 0 8062.7 0 7875.2C0 7687.7 0 7500.3 0 7312.8C0 7125.3 0 6937.7 0 6750.2C0 6562.7 0 6375.3 0 6187.8C0 6000.3 0 5812.7 0 5625.2C0 5437.7 0 5250.3 0 5062.8C0 4875.3 0 4687.7 0 4500.2C0 4312.7 0 4125.3 0 3937.8C0 3750.3 0 3562.7 0 3375.2C0 3187.7 0 3000.3 0 2812.8C0 2625.3 0 2437.7 0 2250.2C0 2062.7 0 1875.3 0 1687.8C0 1500.3 0 1312.7 0 1125.2C0 937.7 0 750.3 0 562.8C0 375.3 0 187.7 0 93.8L0 0Z" fill="#004c1e"></path><path d="M52 0L61.7 93.8C71.3 187.7 90.7 375.3 92.8 562.8C95 750.3 80 937.7 68.2 1125.2C56.3 1312.7 47.7 1500.3 47.7 1687.8C47.7 1875.3 56.3 2062.7 52.7 2250.2C49 2437.7 33 2625.3 36.5 2812.8C40 3000.3 63 3187.7 64.7 3375.2C66.3 3562.7 46.7 3750.3 50 3937.8C53.3 4125.3 79.7 4312.7 92.8 4500.2C106 4687.7 106 4875.3 98.5 5062.8C91 5250.3 76 5437.7 63.3 5625.2C50.7 5812.7 40.3 6000.3 49 6187.8C57.7 6375.3 85.3 6562.7 92 6750.2C98.7 6937.7 84.3 7125.3 72.8 7312.8C61.3 7500.3 52.7 7687.7 44.7 7875.2C36.7 8062.7 29.3 8250.3 31.8 8437.8C34.3 8625.3 46.7 8812.7 52.8 8906.3L59 9000L0 9000L0 8906.3C0 8812.7 0 8625.3 0 8437.8C0 8250.3 0 8062.7 0 7875.2C0 7687.7 0 7500.3 0 7312.8C0 7125.3 0 6937.7 0 6750.2C0 6562.7 0 6375.3 0 6187.8C0 6000.3 0 5812.7 0 5625.2C0 5437.7 0 5250.3 0 5062.8C0 4875.3 0 4687.7 0 4500.2C0 4312.7 0 4125.3 0 3937.8C0 3750.3 0 3562.7 0 3375.2C0 3187.7 0 3000.3 0 2812.8C0 2625.3 0 2437.7 0 2250.2C0 2062.7 0 1875.3 0 1687.8C0 1500.3 0 1312.7 0 1125.2C0 937.7 0 750.3 0 562.8C0 375.3 0 187.7 0 93.8L0 0Z" fill="#00220b"></path></svg>